<svg width="48" height="48" viewBox="0 0 48 48" fill="none" xmlns="http://www.w3.org/2000/svg">
<circle cx="23.9156" cy="23.9452" r="23.9156" fill="black" fill-opacity="0.06"/>
<path d="M24.816 36.342C31.1161 36.342 36.2233 31.2347 36.2233 24.9347C36.2233 18.6346 31.1161 13.5273 24.816 13.5273C18.5159 13.5273 13.4087 18.6346 13.4087 24.9347C13.4087 31.2347 18.5159 36.342 24.816 36.342Z" fill="#E5EFEF"/>
<path d="M30.2865 16.7431C30.2865 18.9571 28.9643 20.7521 27.333 20.7521C25.7018 20.7521 24.379 18.9571 24.379 16.7431C24.379 14.5291 27.333 12.7337 27.333 12.7337C27.333 12.7337 30.2865 14.5296 30.2865 16.7431Z" fill="#F53E28" stroke="#4C241D" stroke-linecap="round" stroke-linejoin="round"/>
<path d="M33.9101 20.8928C34.0696 21.6187 34.057 22.3719 33.8732 23.092C33.6894 23.8121 33.3397 24.4792 32.8518 25.0399C32.364 25.6006 31.7517 26.0394 31.0639 26.321C30.3762 26.6026 29.632 26.7193 28.891 26.6618C28.1501 26.6042 27.4329 26.374 26.7968 25.9896C26.1608 25.6051 25.6235 25.0771 25.2282 24.4478C24.8328 23.8185 24.5902 23.1054 24.5198 22.3656C24.4494 21.6257 24.5532 20.8796 24.8229 20.1871C25.6805 17.7925 28.0462 13.5768 34.0842 13.5768L33.8049 14.8336C33.4326 16.5096 33.4061 18.244 33.7271 19.9307L33.9101 20.8928Z" fill="#F53E28" stroke="#4C241D" stroke-linecap="round" stroke-linejoin="round"/>
<path d="M13.9047 10.5515V11.5434" stroke="#4C241D" stroke-linecap="round" stroke-linejoin="round"/>
<path d="M13.9047 13.5273V14.5193" stroke="#4C241D" stroke-linecap="round" stroke-linejoin="round"/>
<path d="M11.9207 12.5353H12.9126" stroke="#4C241D" stroke-linecap="round" stroke-linejoin="round"/>
<path d="M14.8966 12.5353H15.8885" stroke="#4C241D" stroke-linecap="round" stroke-linejoin="round"/>
<path d="M36.9672 29.3983C37.652 29.3983 38.2071 28.8432 38.2071 28.1584C38.2071 27.4736 37.652 26.9185 36.9672 26.9185C36.2824 26.9185 35.7273 27.4736 35.7273 28.1584C35.7273 28.8432 36.2824 29.3983 36.9672 29.3983Z" stroke="#4C241D" stroke-linecap="round" stroke-linejoin="round"/>
<path d="M14.2274 19.0325C14.2274 19.1374 14.1963 19.2399 14.138 19.3271C14.0798 19.4143 13.997 19.4822 13.9001 19.5223C13.8032 19.5625 13.6966 19.573 13.5937 19.5525C13.4909 19.5321 13.3964 19.4816 13.3223 19.4074C13.2481 19.3333 13.1976 19.2388 13.1772 19.1359C13.1567 19.0331 13.1672 18.9265 13.2074 18.8296C13.2475 18.7327 13.3154 18.6499 13.4026 18.5917C13.4898 18.5334 13.5923 18.5023 13.6972 18.5023C13.8378 18.5023 13.9727 18.5582 14.0721 18.6576C14.1715 18.757 14.2274 18.8919 14.2274 19.0325Z" fill="#4C241D"/>
<path d="M36.5461 34.4798C36.5461 34.5847 36.515 34.6872 36.4567 34.7744C36.3985 34.8616 36.3157 34.9295 36.2188 34.9697C36.1219 35.0098 36.0153 35.0203 35.9125 34.9998C35.8096 34.9794 35.7152 34.9289 35.641 34.8547C35.5669 34.7806 35.5164 34.6861 35.4959 34.5833C35.4754 34.4804 35.4859 34.3738 35.5261 34.2769C35.5662 34.1801 35.6342 34.0973 35.7214 34.039C35.8085 33.9807 35.911 33.9496 36.0159 33.9496C36.1565 33.9496 36.2914 34.0055 36.3908 34.1049C36.4902 34.2044 36.5461 34.3392 36.5461 34.4798Z" fill="#4C241D"/>
<path d="M21.1775 20.8928C20.9937 21.7809 21.0654 22.7029 21.3845 23.5518C21.7036 24.4007 22.257 25.1417 22.9803 25.6888C23.7036 26.2359 24.5672 26.5666 25.471 26.6425C26.3747 26.7185 27.2814 26.5366 28.0859 26.1179C29.1018 25.5568 29.8814 24.6483 30.2816 23.5589C30.6818 22.4695 30.6758 21.2724 30.2647 20.1871C29.4071 17.7925 27.0414 13.5768 21.0034 13.5768L21.2826 14.8336C21.655 16.5096 21.6815 18.244 21.3605 19.9307L21.1775 20.8928Z" fill="#F53E28" stroke="#4C241D" stroke-linecap="round" stroke-linejoin="round"/>
<path d="M27.333 27.0811V37.6303V27.0811Z" fill="#F53E28"/>
<path d="M27.333 27.0811V37.6303" stroke="#4C241D" stroke-linecap="round" stroke-linejoin="round"/>
<path d="M31.405 33.6854C30.2717 34.8202 27.4695 34.962 27.4695 34.962C27.4695 34.962 27.6113 32.1613 28.7461 31.026C29.8809 29.8907 32.6816 29.7499 32.6816 29.7499C32.6816 29.7499 32.5403 32.5506 31.405 33.6854Z" fill="#77A052" stroke="#4C241D" stroke-linecap="round" stroke-linejoin="round"/>
<path d="M16.8869 25.7925C16.8869 26.9987 16.1663 27.9748 15.2775 27.9748C14.3887 27.9748 13.6686 26.9972 13.6686 25.7925C13.6686 24.5878 15.2775 23.6102 15.2775 23.6102C15.2775 23.6102 16.8869 24.5873 16.8869 25.7925Z" fill="#F53E28" stroke="#4C241D" stroke-linecap="round" stroke-linejoin="round"/>
<path d="M18.8609 28.549C18.9612 29.0331 18.9221 29.5357 18.7482 29.9985C18.5742 30.4612 18.2725 30.8651 17.8781 31.1632C17.4837 31.4613 17.0128 31.6413 16.5202 31.6824C16.0275 31.7235 15.5333 31.624 15.095 31.3954C14.5417 31.0896 14.1172 30.5946 13.8993 30.0013C13.6813 29.4079 13.6844 28.7559 13.9081 28.1646C14.2391 27.0948 14.912 26.1632 15.8235 25.5128C16.735 24.8623 17.8349 24.529 18.9541 24.5639L18.8019 25.2488C18.599 26.1621 18.5845 27.1072 18.7592 28.0263L18.8609 28.549Z" fill="#F53E28" stroke="#4C241D" stroke-linecap="round" stroke-linejoin="round"/>
<path d="M11.9242 28.549C11.8238 29.0331 11.8629 29.5357 12.0369 29.9985C12.2109 30.4612 12.5126 30.8651 12.907 31.1632C13.3013 31.4613 13.7722 31.6413 14.2649 31.6824C14.7575 31.7235 15.2517 31.624 15.6901 31.3954C16.2433 31.0896 16.6678 30.5946 16.8858 30.0013C17.1038 29.4079 17.1006 28.7559 16.8769 28.1646C16.546 27.0948 15.8731 26.1632 14.9615 25.5128C14.05 24.8623 12.9502 24.529 11.8309 24.5639L11.9832 25.2488C12.186 26.1621 12.2006 27.1072 12.0258 28.0263L11.9242 28.549Z" fill="#F53E28" stroke="#4C241D" stroke-linecap="round" stroke-linejoin="round"/>
<path d="M15.3926 31.8781V37.8298V31.8781Z" fill="#F53E28"/>
<path d="M15.3926 31.8781V37.8298" stroke="#4C241D" stroke-linecap="round" stroke-linejoin="round"/>
<path d="M15.3926 35.8141C15.44 35.1821 15.6672 34.5769 16.0473 34.0698C16.6657 33.4518 18.1918 33.3754 18.1918 33.3754C18.1918 33.3754 18.1145 34.9015 17.4975 35.52C16.9688 36.0442 15.7799 36.1801 15.4422 36.2079" fill="#77A052"/>
<path d="M15.3926 35.8141C15.44 35.1821 15.6672 34.5769 16.0473 34.0698C16.6657 33.4518 18.1918 33.3754 18.1918 33.3754C18.1918 33.3754 18.1145 34.9015 17.4975 35.52C16.9688 36.0442 15.7799 36.1801 15.4422 36.2079" stroke="#4C241D" stroke-linecap="round" stroke-linejoin="round"/>
<path d="M24.8656 24.7813C24.2734 24.5836 23.7584 24.2047 23.3935 23.6981C23.0286 23.1916 22.8322 22.5831 22.8322 21.9587" stroke="#4C241D" stroke-linecap="round" stroke-linejoin="round"/>
</svg>
