<svg width="48" height="47" viewBox="0 0 48 47" fill="none" xmlns="http://www.w3.org/2000/svg">
<ellipse cx="23.9156" cy="23.5148" rx="23.9156" ry="23.4557" fill="#C5A5EB"/>
<path d="M20.4483 31.097C26.6536 31.097 31.6839 26.0667 31.6839 19.8615C31.6839 13.6562 26.6536 8.62592 20.4483 8.62592C14.2431 8.62592 9.21277 13.6562 9.21277 19.8615C9.21277 26.0667 14.2431 31.097 20.4483 31.097Z" fill="#FFDED5"/>
<path d="M22.1711 38.5874H28.2837C30.751 38.5504 32.5667 35.4349 32.1138 32.1612L31.6054 28.4889C31.3343 26.5269 30.0649 25.1047 28.5878 25.1047H21.7965C20.3179 25.1047 19.0501 26.5269 18.7774 28.4884L18.2706 32.1607C17.8177 35.4344 19.6333 38.5499 22.1006 38.5869L22.1711 38.5874Z" fill="#EAEAEA" stroke="#4C241D" stroke-linecap="round" stroke-linejoin="round"/>
<path d="M29.1871 33.8304H30.6852C31.215 33.8304 31.723 34.0409 32.0976 34.4155C32.4722 34.7901 32.6826 35.2981 32.6826 35.8279H27.1897" fill="white"/>
<path d="M29.1871 33.8304H30.6852C31.215 33.8304 31.723 34.0409 32.0976 34.4155C32.4722 34.7901 32.6826 35.2981 32.6826 35.8279H27.1897" stroke="#4C241D" stroke-linecap="round" stroke-linejoin="round"/>
<path d="M21.1973 33.8304H19.6992C19.1695 33.8304 18.6614 34.0409 18.2868 34.4155C17.9122 34.7901 17.7018 35.2981 17.7018 35.8279H23.1947" fill="white"/>
<path d="M21.1973 33.8304H19.6992C19.1695 33.8304 18.6614 34.0409 18.2868 34.4155C17.9122 34.7901 17.7018 35.2981 17.7018 35.8279H23.1947" stroke="#4C241D" stroke-linecap="round" stroke-linejoin="round"/>
<path d="M37.1768 30.0983V31.097" stroke="#4C241D" stroke-linecap="round" stroke-linejoin="round"/>
<path d="M37.1768 30.335V31.3337" stroke="#4C241D" stroke-linecap="round" stroke-linejoin="round"/>
<path d="M35.1794 29.3363H36.1782" stroke="#4C241D" stroke-linecap="round" stroke-linejoin="round"/>
<path d="M38.1755 29.3363H39.1743" stroke="#4C241D" stroke-linecap="round" stroke-linejoin="round"/>
<path d="M14.0764 25.6319C14.3712 25.6319 14.6102 25.3929 14.6102 25.0981C14.6102 24.8033 14.3712 24.5643 14.0764 24.5643C13.7816 24.5643 13.5426 24.8033 13.5426 25.0981C13.5426 25.3929 13.7816 25.6319 14.0764 25.6319Z" fill="#4C241D"/>
<path d="M37.5463 22.1365C37.8411 22.1365 38.0801 21.8975 38.0801 21.6027C38.0801 21.3079 37.8411 21.0689 37.5463 21.0689C37.2514 21.0689 37.0125 21.3079 37.0125 21.6027C37.0125 21.8975 37.2514 22.1365 37.5463 22.1365Z" fill="#4C241D"/>
<path d="M10.9604 32.0958C11.6499 32.0958 12.2088 31.5369 12.2088 30.8475C12.2088 30.158 11.6499 29.5991 10.9604 29.5991C10.271 29.5991 9.71204 30.158 9.71204 30.8475C9.71204 31.5369 10.271 32.0958 10.9604 32.0958Z" stroke="#4C241D" stroke-linecap="round" stroke-linejoin="round"/>
<path d="M23.6941 29.0996H22.196" stroke="#4C241D" stroke-linecap="round" stroke-linejoin="round"/>
<path d="M23.6941 27.8382H22.196" stroke="#4C241D" stroke-linecap="round" stroke-linejoin="round"/>
<path d="M23.6941 29.3364H22.196" stroke="#4C241D" stroke-linecap="round" stroke-linejoin="round"/>
<path d="M20.1986 28.1008H21.6508C21.788 28.1008 21.9238 28.1277 22.0506 28.1802C22.1774 28.2327 22.2926 28.3096 22.3896 28.4066C22.4866 28.5037 22.5636 28.6189 22.616 28.7456C22.6685 28.8724 22.6955 29.0083 22.6954 29.1455V32.0497C22.6955 32.1869 22.6685 32.3228 22.616 32.4496C22.5636 32.5764 22.4866 32.6916 22.3896 32.7886C22.2926 32.8856 22.1774 32.9625 22.0506 33.015C21.9238 33.0675 21.788 33.0945 21.6508 33.0944H18.4229C17.9668 33.0944 17.5294 32.9132 17.2068 32.5907C16.8843 32.2682 16.7031 31.8307 16.7031 31.3746V29.5989C16.7031 28.6718 17.0714 27.7827 17.7269 27.1272C18.3825 26.4717 19.2716 26.1034 20.1986 26.1034H24.6929" fill="white"/>
<path d="M20.1986 28.1008H21.6508C21.788 28.1008 21.9238 28.1277 22.0506 28.1802C22.1774 28.2327 22.2926 28.3096 22.3896 28.4066C22.4866 28.5037 22.5636 28.6189 22.616 28.7456C22.6685 28.8724 22.6955 29.0083 22.6954 29.1455V32.0497C22.6955 32.1869 22.6685 32.3228 22.616 32.4496C22.5636 32.5764 22.4866 32.6916 22.3896 32.7886C22.2926 32.8856 22.1774 32.9625 22.0506 33.015C21.9238 33.0675 21.788 33.0945 21.6508 33.0944H18.4229C17.9668 33.0944 17.5294 32.9132 17.2068 32.5907C16.8843 32.2682 16.7031 31.8307 16.7031 31.3746V29.5989C16.7031 28.6718 17.0714 27.7827 17.7269 27.1272C18.3825 26.4717 19.2716 26.1034 20.1986 26.1034H24.6929" stroke="#4C241D" stroke-linecap="round" stroke-linejoin="round"/>
<path d="M26.6902 29.0996H28.1883" stroke="#4C241D" stroke-linecap="round" stroke-linejoin="round"/>
<path d="M26.6902 27.8382H28.1883" stroke="#4C241D" stroke-linecap="round" stroke-linejoin="round"/>
<path d="M26.6902 29.3364H28.1883" stroke="#4C241D" stroke-linecap="round" stroke-linejoin="round"/>
<path d="M30.1857 28.1008H28.7336C28.5964 28.1008 28.4605 28.1277 28.3338 28.1802C28.207 28.2327 28.0918 28.3096 27.9948 28.4066C27.8978 28.5037 27.8208 28.6189 27.7683 28.7456C27.7159 28.8724 27.6889 29.0083 27.689 29.1455V32.0497C27.6889 32.1869 27.7159 32.3228 27.7683 32.4496C27.8208 32.5764 27.8978 32.6916 27.9948 32.7886C28.0918 32.8856 28.207 32.9625 28.3338 33.015C28.4605 33.0675 28.5964 33.0945 28.7336 33.0944H31.9615C32.4176 33.0944 32.855 32.9132 33.1775 32.5907C33.5001 32.2682 33.6813 31.8307 33.6813 31.3746V29.5989C33.6813 28.6718 33.313 27.7827 32.6574 27.1272C32.0019 26.4717 31.1128 26.1034 30.1857 26.1034H21.6967" fill="white"/>
<path d="M30.1857 28.1008H28.7336C28.5964 28.1008 28.4605 28.1277 28.3338 28.1802C28.207 28.2327 28.0918 28.3096 27.9948 28.4066C27.8978 28.5037 27.8208 28.6189 27.7683 28.7456C27.7159 28.8724 27.6889 29.0083 27.689 29.1455V32.0497C27.6889 32.1869 27.7159 32.3228 27.7683 32.4496C27.8208 32.5764 27.8978 32.6916 27.9948 32.7886C28.0918 32.8856 28.207 32.9625 28.3338 33.015C28.4605 33.0675 28.5964 33.0945 28.7336 33.0944H31.9615C32.4176 33.0944 32.855 32.9132 33.1775 32.5907C33.5001 32.2682 33.6813 31.8307 33.6813 31.3746V29.5989C33.6813 28.6718 33.313 27.7827 32.6574 27.1272C32.0019 26.4717 31.1128 26.1034 30.1857 26.1034H21.6967" stroke="#4C241D" stroke-linecap="round" stroke-linejoin="round"/>
<path d="M19.7702 14.8679C19.7377 14.4962 19.6324 14.1345 19.4602 13.8035C19.288 13.4725 19.0523 13.1786 18.7665 12.9387C18.4807 12.6988 18.1505 12.5175 17.7946 12.4052C17.4388 12.2929 17.0643 12.2518 16.6926 12.2843L14.067 12.513C13.5218 12.5605 13.0178 12.8228 12.6659 13.2419C12.3139 13.6611 12.1429 14.2028 12.1904 14.7481L12.3522 16.6022C12.3856 16.9855 12.4941 17.3586 12.6717 17.6999C12.8492 18.0413 13.0923 18.3444 13.387 18.5918C13.6817 18.8393 14.0222 19.0262 14.3892 19.142C14.7561 19.2578 15.1423 19.3002 15.5256 19.2668L17.7463 19.073" fill="#EAEAEA"/>
<path d="M19.7702 14.8679C19.7377 14.4962 19.6324 14.1345 19.4602 13.8035C19.288 13.4725 19.0523 13.1786 18.7665 12.9387C18.4807 12.6988 18.1505 12.5175 17.7946 12.4052C17.4388 12.2929 17.0643 12.2518 16.6926 12.2843L14.067 12.513C13.5218 12.5605 13.0178 12.8228 12.6659 13.2419C12.3139 13.6611 12.1429 14.2028 12.1904 14.7481L12.3522 16.6022C12.3856 16.9855 12.4941 17.3586 12.6717 17.6999C12.8492 18.0413 13.0923 18.3444 13.387 18.5918C13.6817 18.8393 14.0222 19.0262 14.3892 19.142C14.7561 19.2578 15.1423 19.3002 15.5256 19.2668L17.7463 19.073" stroke="#4C241D" stroke-linecap="round" stroke-linejoin="round"/>
<path d="M30.1593 14.868C30.225 14.1174 30.5862 13.4237 31.1633 12.9394C31.7404 12.4551 32.4863 12.2198 33.2368 12.2853L35.8625 12.514C36.4077 12.5616 36.9117 12.8238 37.2636 13.243C37.6155 13.6621 37.7866 14.2039 37.7391 14.7491L37.5763 16.6032C37.5429 16.9866 37.4343 17.3596 37.2568 17.701C37.0792 18.0424 36.8362 18.3454 36.5415 18.5929C36.2468 18.8403 35.9063 19.0273 35.5393 19.1431C35.1724 19.2589 34.7862 19.3013 34.4028 19.2678L32.1832 19.0741" fill="#EAEAEA"/>
<path d="M30.1593 14.868C30.225 14.1174 30.5862 13.4237 31.1633 12.9394C31.7404 12.4551 32.4863 12.2198 33.2368 12.2853L35.8625 12.514C36.4077 12.5616 36.9117 12.8238 37.2636 13.243C37.6155 13.6621 37.7866 14.2039 37.7391 14.7491L37.5763 16.6032C37.5429 16.9866 37.4343 17.3596 37.2568 17.701C37.0792 18.0424 36.8362 18.3454 36.5415 18.5929C36.2468 18.8403 35.9063 19.0273 35.5393 19.1431C35.1724 19.2589 34.7862 19.3013 34.4028 19.2678L32.1832 19.0741" stroke="#4C241D" stroke-linecap="round" stroke-linejoin="round"/>
<path d="M33.6813 20.9031C33.6813 24.9195 29.0517 27.0522 25.1088 27.0522C21.1659 27.0522 16.2037 24.9195 16.2037 20.9031C16.2037 16.8868 20.1272 12.6707 25.1088 12.6707C26.2133 12.644 27.3123 12.8362 28.3422 13.2363C29.3721 13.6363 30.3126 14.2363 31.1095 15.0016C31.9064 15.7669 32.544 16.6824 32.9854 17.6953C33.4268 18.7082 33.6633 19.7984 33.6813 20.9031Z" fill="#EAEAEA" stroke="#4C241D" stroke-linecap="round" stroke-linejoin="round"/>
<path d="M21.447 18.6131C21.8607 18.6131 22.1961 18.2777 22.1961 17.864C22.1961 17.4503 21.8607 17.115 21.447 17.115C21.0334 17.115 20.698 17.4503 20.698 17.864C20.698 18.2777 21.0334 18.6131 21.447 18.6131Z" fill="#4C241D"/>
<path d="M28.5983 18.6131C29.012 18.6131 29.3473 18.2777 29.3473 17.864C29.3473 17.4503 29.012 17.115 28.5983 17.115C28.1846 17.115 27.8492 17.4503 27.8492 17.864C27.8492 18.2777 28.1846 18.6131 28.5983 18.6131Z" fill="#4C241D"/>
<path d="M25.1923 35.8278V31.8329" stroke="#4C241D" stroke-linecap="round" stroke-linejoin="round"/>
<path d="M12.7081 35.8278H37.676" stroke="#4C241D" stroke-linecap="round" stroke-linejoin="round"/>
<path d="M26.1673 25.1047H24.2169C24.0383 25.1141 23.8598 25.084 23.6942 25.0167C23.5285 24.9494 23.3797 24.8464 23.2583 24.7151C23.1369 24.5838 23.0459 24.4274 22.9918 24.257C22.9376 24.0865 22.9217 23.9063 22.945 23.729L23.5143 20.599C23.578 20.312 23.74 20.0563 23.9722 19.8761C24.2044 19.6958 24.4923 19.6024 24.7861 19.6118H25.5981C25.8918 19.6025 26.1796 19.696 26.4117 19.8763C26.6438 20.0565 26.8057 20.3121 26.8694 20.599L27.4387 23.729C27.462 23.9062 27.4461 24.0865 27.3919 24.2568C27.3378 24.4272 27.2469 24.5836 27.1255 24.7149C27.0042 24.8462 26.8555 24.9492 26.6899 25.0165C26.5243 25.0839 26.3459 25.114 26.1673 25.1047Z" fill="#6B4F5B" stroke="#4C241D" stroke-linecap="round" stroke-linejoin="round"/>
</svg>
