<svg width="48" height="48" viewBox="0 0 48 48" fill="none" xmlns="http://www.w3.org/2000/svg">
<circle cx="23.9156" cy="24.0844" r="23.9156" fill="#F15BB5"/>
<path d="M28.4737 29.9995C33.6066 29.9995 37.7677 25.8384 37.7677 20.7055C37.7677 15.5725 33.6066 11.4114 28.4737 11.4114C23.3408 11.4114 19.1797 15.5725 19.1797 20.7055C19.1797 25.8384 23.3408 29.9995 28.4737 29.9995Z" fill="#EAEAEA"/>
<path d="M15.7773 33.8901L14.5029 35.1644" stroke="#4C241D" stroke-linecap="round" stroke-linejoin="round"/>
<path d="M14.5029 33.8901L15.7773 35.1644" stroke="#4C241D" stroke-linecap="round" stroke-linejoin="round"/>
<path d="M34.3096 15.3021C34.5483 15.3021 34.7419 15.1085 34.7419 14.8698C34.7419 14.631 34.5483 14.4375 34.3096 14.4375C34.0709 14.4375 33.8773 14.631 33.8773 14.8698C33.8773 15.1085 34.0709 15.3021 34.3096 15.3021Z" fill="#4C241D"/>
<path d="M37.3355 18.3279C37.5742 18.3279 37.7678 18.1343 37.7678 17.8956C37.7678 17.6569 37.5742 17.4633 37.3355 17.4633C37.0967 17.4633 36.9032 17.6569 36.9032 17.8956C36.9032 18.1343 37.0967 18.3279 37.3355 18.3279Z" fill="#4C241D"/>
<path d="M20.9087 37.348V33.4575H26.096V37.348" fill="#FFDED5"/>
<path d="M20.9087 37.348V33.4575H26.096V37.348" stroke="#4C241D" stroke-linecap="round" stroke-linejoin="round"/>
<path d="M29.9867 25.2444H30.4497C30.6784 25.2443 30.9048 25.2893 31.1161 25.3768C31.3274 25.4643 31.5194 25.5925 31.6812 25.7542C31.8429 25.9159 31.9712 26.1079 32.0587 26.3192C32.1463 26.5305 32.1913 26.7569 32.1913 26.9856C32.1913 27.4474 32.0079 27.8903 31.6813 28.2168C31.3548 28.5434 30.9119 28.7268 30.4501 28.7268H29.9867V25.2444Z" fill="#FFDED5" stroke="#4C241D" stroke-linecap="round" stroke-linejoin="round"/>
<path d="M17.061 28.7267H16.5981C16.3694 28.7268 16.1429 28.6818 15.9316 28.5943C15.7203 28.5068 15.5283 28.3786 15.3666 28.2169C15.2048 28.0552 15.0765 27.8632 14.989 27.652C14.9015 27.4407 14.8564 27.2142 14.8564 26.9855C14.8564 26.5237 15.0399 26.0808 15.3664 25.7543C15.6929 25.4277 16.1358 25.2443 16.5976 25.2443H17.061V28.7267Z" fill="#FFDED5" stroke="#4C241D" stroke-linecap="round" stroke-linejoin="round"/>
<path d="M17.0184 21.3538H29.9868V28.2271C29.9868 29.8436 29.3447 31.3939 28.2016 32.537C27.0585 33.6801 25.5082 34.3222 23.8917 34.3222H23.1136C21.497 34.3222 19.9467 33.6801 18.8037 32.537C17.6606 31.3939 17.0184 29.8436 17.0184 28.2271V21.3538Z" fill="#FFDED5" stroke="#4C241D" stroke-linecap="round" stroke-linejoin="round"/>
<path d="M20.8799 26.6332C20.7668 26.7725 20.6243 26.885 20.4626 26.9627C20.3009 27.0404 20.1241 27.0814 19.9447 27.0827C19.7653 27.084 19.5878 27.0456 19.425 26.9703C19.2622 26.895 19.1181 26.7846 19.0029 26.6471" stroke="#4C241D" stroke-linecap="round" stroke-linejoin="round"/>
<path d="M27.7963 26.6332C27.6832 26.7725 27.5407 26.885 27.379 26.9627C27.2173 27.0404 27.0404 27.0814 26.8611 27.0827C26.6817 27.084 26.5042 27.0456 26.3414 26.9703C26.1786 26.895 26.0345 26.7846 25.9193 26.6471" stroke="#4C241D" stroke-linecap="round" stroke-linejoin="round"/>
<path d="M17.0182 25.2444H18.3151L18.7473 20.0571H16.5859L17.0182 25.2444Z" fill="#6B4F5B" stroke="#4C241D" stroke-linecap="round" stroke-linejoin="round"/>
<path d="M28.6898 25.2444H29.9867L30.419 20.0571H28.2576L28.6898 25.2444Z" fill="#6B4F5B" stroke="#4C241D" stroke-linecap="round" stroke-linejoin="round"/>
<path d="M11.8309 20.4893H35.174V20.5689C35.174 21.3503 34.8636 22.0997 34.311 22.6523C33.7585 23.2049 33.009 23.5153 32.2276 23.5153H14.7773C13.9959 23.5153 13.2465 23.2049 12.6939 22.6523C12.1414 22.0997 11.8309 21.3503 11.8309 20.5689V20.4893Z" fill="#BF7E68" stroke="#4C241D" stroke-linecap="round" stroke-linejoin="round"/>
<path d="M20.5007 12.7083H26.5042C27.0182 12.7083 27.5273 12.8095 28.0023 13.0062C28.4772 13.203 28.9088 13.4913 29.2723 13.8549C29.6358 14.2184 29.9242 14.6499 30.1209 15.1249C30.3176 15.5998 30.4189 16.1089 30.4189 16.623V18.3279H16.5859V16.623C16.5859 15.5847 16.9984 14.589 17.7325 13.8549C18.4667 13.1207 19.4624 12.7083 20.5007 12.7083Z" fill="#BF7E68" stroke="#4C241D" stroke-linecap="round" stroke-linejoin="round"/>
<path d="M24.7993 29.5672L25.1983 29.5707C25.769 29.5664 26.3317 29.7045 26.8357 29.9723C27.3396 30.2402 27.7689 30.6294 28.0846 31.1048L28.098 31.1264L29.5544 33.4577H30.4189V31.7286H33.4449V33.0254C33.4449 33.5987 33.2172 34.1484 32.8118 34.5538C32.4065 34.9591 31.8567 35.1868 31.2835 35.1868H29.914C29.5407 35.1869 29.1736 35.0903 28.8487 34.9064C28.5238 34.7224 28.2521 34.4575 28.06 34.1373L26.7995 32.0364C26.3457 31.2799 25.6362 30.7107 24.7993 30.4318V29.5672Z" fill="#BF7E68" stroke="#4C241D" stroke-linecap="round" stroke-linejoin="round"/>
<path d="M33.0127 30.4318V29.7834C33.0127 29.6114 33.081 29.4465 33.2026 29.3249C33.3242 29.2033 33.4891 29.1349 33.6611 29.1349C33.8331 29.1349 33.998 29.0666 34.1196 28.945C34.2412 28.8234 34.3095 28.6585 34.3095 28.4865V27.1897C34.3095 27.0177 34.3778 26.8528 34.4995 26.7312C34.6211 26.6096 34.786 26.5413 34.958 26.5413H35.3902C35.5622 26.5413 35.7271 26.4729 35.8487 26.3513C35.9703 26.2297 36.0387 26.0648 36.0387 25.8928V23.9476" stroke="#4C241D" stroke-linecap="round" stroke-linejoin="round"/>
<path d="M29.2869 29.5862C26.599 30.7383 25.8308 28.4342 24.4886 28.4342C24.3391 28.4344 24.1917 28.4698 24.0582 28.5373C23.9248 28.6049 23.8091 28.7028 23.7205 28.8233C23.6318 28.7028 23.5161 28.6049 23.3827 28.5373C23.2493 28.4698 23.1018 28.4344 22.9523 28.4342C21.6083 28.4342 20.8402 30.7383 18.154 29.5862C17.6664 29.3774 20.8419 31.8903 23.146 30.7383C23.3789 30.6318 23.5774 30.4621 23.7187 30.2485C23.8609 30.4627 24.0606 30.6325 24.295 30.7383C26.599 31.8903 29.7745 29.3774 29.2869 29.5862Z" fill="#6B4F5B" stroke="#4C241D" stroke-linecap="round" stroke-linejoin="round"/>
<path d="M16.5859 18.3278H30.4189V20.4892H16.5859V18.3278Z" fill="#6B4F5B" stroke="#4C241D" stroke-linecap="round" stroke-linejoin="round"/>
<path d="M20.4766 12.7083H26.5285C26.5285 13.1668 26.3463 13.6067 26.022 13.9309C25.6978 14.2552 25.2579 14.4374 24.7994 14.4374H22.2057C21.7471 14.4374 21.3073 14.2552 20.983 13.9309C20.6587 13.6067 20.4766 13.1668 20.4766 12.7083Z" fill="#6B4F5B" stroke="#4C241D" stroke-linecap="round" stroke-linejoin="round"/>
</svg>
