<svg width="22" height="18" viewBox="0 0 22 18" fill="none" xmlns="http://www.w3.org/2000/svg">
<path d="M11 0C6 0 1.73 3.11 0 7.5C1.73 11.89 6 15 11 15C11.36 15 11.72 15 12.08 14.95C12.03 14.63 12 14.32 12 14C12 13.64 12.04 13.28 12.1 12.92C11.74 12.96 11.37 13 11 13C7.24 13 3.83 10.86 2.18 7.5C3.83 4.14 7.24 2 11 2C14.76 2 18.17 4.14 19.82 7.5C19.7 7.74 19.56 7.95 19.43 8.18C20.09 8.34 20.72 8.61 21.29 9C21.56 8.5 21.8 8 22 7.5C20.27 3.11 16 0 11 0ZM11 4.5C10.2044 4.5 9.44129 4.81607 8.87868 5.37868C8.31607 5.94129 8 6.70435 8 7.5C8 8.29565 8.31607 9.05871 8.87868 9.62132C9.44129 10.1839 10.2044 10.5 11 10.5C11.7956 10.5 12.5587 10.1839 13.1213 9.62132C13.6839 9.05871 14 8.29565 14 7.5C14 6.70435 13.6839 5.94129 13.1213 5.37868C12.5587 4.81607 11.7956 4.5 11 4.5ZM17 10V13H14V15H17V18H19V15H22V13H19V10H17Z" fill="black"/>
</svg>
