<svg width="49" height="48" viewBox="0 0 49 48" fill="none" xmlns="http://www.w3.org/2000/svg">
<ellipse cx="24.3755" cy="23.9156" rx="24.3755" ry="23.9156" fill="#00F5D4"/>
<path d="M15.5184 29.4045C15.8182 29.4045 16.0611 29.1615 16.0611 28.8618C16.0611 28.5621 15.8182 28.3191 15.5184 28.3191C15.2187 28.3191 14.9757 28.5621 14.9757 28.8618C14.9757 29.1615 15.2187 29.4045 15.5184 29.4045Z" fill="#4C241D"/>
<path d="M28.8671 30.3905C34.8954 30.3905 39.7824 25.5036 39.7824 19.4752C39.7824 13.4468 34.8954 8.55988 28.8671 8.55988C22.8387 8.55988 17.9518 13.4468 17.9518 19.4752C17.9518 25.5036 22.8387 30.3905 28.8671 30.3905Z" fill="#E5EFEF"/>
<path d="M12.3425 29.3751L10.8458 30.8718" stroke="#4C241D" stroke-linecap="round" stroke-linejoin="round"/>
<path d="M12.3425 30.8718L10.8458 29.3751" stroke="#4C241D" stroke-linecap="round" stroke-linejoin="round"/>
<path d="M34.1979 20.1454V19.8687C34.1975 18.9258 33.8373 18.0186 33.1909 17.3322C32.5444 16.6458 31.6604 16.232 30.7192 16.1752C29.8214 16.1552 28.9499 16.4784 28.2823 17.0789C28.0873 17.2455 27.8381 17.335 27.5816 17.3305C27.3252 17.326 27.0793 17.2279 26.8902 17.0546C26.3278 16.5686 25.6301 16.2664 24.8909 16.1886C24.1517 16.1107 23.4064 16.2609 22.7551 16.619C22.1819 16.9389 21.712 17.416 21.4007 17.9939C21.0894 18.5719 20.9497 19.2267 20.998 19.8814C21.0024 20.0603 20.9714 20.2384 20.9066 20.4053C20.8418 20.5722 20.7446 20.7246 20.6206 20.8537C20.4966 20.9828 20.3482 21.0861 20.1841 21.1575C20.0199 21.2289 19.8433 21.2671 19.6643 21.2699C19.5448 21.2692 19.4257 21.2563 19.3089 21.2313C18.5114 21.0593 17.8008 20.6097 17.3039 19.9627C16.8069 19.3157 16.5558 18.5132 16.5953 17.6983C16.643 16.456 16.7547 14.9781 16.7298 13.6759C17.0278 13.3576 17.2415 12.97 17.3516 12.5481C17.4617 12.1263 17.4648 11.6836 17.3604 11.2603C17.2871 10.9627 17.1607 10.6808 16.9872 10.4282C17.1595 10.3561 17.3094 10.2395 17.4217 10.0904C17.5339 9.94118 17.6045 9.76482 17.626 9.57937C17.6476 9.39393 17.6194 9.20609 17.5444 9.03513C17.4694 8.86417 17.3502 8.71625 17.1992 8.60657C17.0481 8.49688 16.8705 8.42938 16.6847 8.411C16.499 8.39261 16.3116 8.424 16.142 8.50194C15.9723 8.57989 15.8265 8.70158 15.7194 8.85452C15.6123 9.00746 15.5479 9.18614 15.5327 9.37221C15.4514 9.34673 15.3689 9.32538 15.2855 9.30824C14.8048 9.21896 14.3087 9.2661 13.8534 9.4443C13.3981 9.6225 13.0018 9.92465 12.7095 10.3165H11.061C10.5995 10.3071 10.1516 10.4733 9.80786 10.7815C9.46415 11.0897 9.25027 11.5168 9.20945 11.9767C9.19662 12.2147 9.23243 12.4528 9.31468 12.6765C9.39694 12.9003 9.52391 13.1049 9.68786 13.2779C9.85182 13.4509 10.0493 13.5887 10.2683 13.6829C10.4873 13.7771 10.7231 13.8257 10.9615 13.8257H13.0273C13.2106 13.9901 13.4155 14.1286 13.6365 14.2374V18.0243C13.626 19.6833 14.0931 21.3103 14.9819 22.7112C15.4134 23.3844 15.718 23.5906 16.9365 24.1891V24.8491C16.937 25.7804 17.3073 26.6733 17.966 27.3317C18.6247 27.99 19.5179 28.3598 20.4492 28.3598H25.2255C30.5562 28.3598 35.0604 26.4397 35.7554 21.1552C35.5686 20.7642 34.9685 20.4277 34.1979 20.1454Z" fill="#BF7E68" stroke="#4C241D" stroke-linecap="round" stroke-linejoin="round"/>
<path d="M13.8905 39.0212C13.8905 38.348 14.1579 37.7023 14.634 37.2263C15.11 36.7502 15.7557 36.4828 16.4289 36.4828H35.2134C35.8866 36.4828 36.5323 36.7502 37.0083 37.2263C37.4844 37.7023 37.7518 38.348 37.7518 39.0212" fill="#FC8C29"/>
<path d="M13.8905 39.0212C13.8905 38.348 14.1579 37.7023 14.634 37.2263C15.11 36.7502 15.7557 36.4828 16.4289 36.4828H35.2134C35.8866 36.4828 36.5323 36.7502 37.0083 37.2263C37.4844 37.7023 37.7518 38.348 37.7518 39.0212" stroke="#4C241D" stroke-linecap="round" stroke-linejoin="round"/>
<path d="M20.4902 27.8521V34.9598H19.4748C19.0709 34.9598 18.6835 35.1202 18.3979 35.4058C18.1122 35.6915 17.9518 36.0789 17.9518 36.4828H22.521V24.806" fill="#BF7E68"/>
<path d="M20.4902 27.8521V34.9598H19.4748C19.0709 34.9598 18.6835 35.1202 18.3979 35.4058C18.1122 35.6915 17.9518 36.0789 17.9518 36.4828H22.521V24.806" stroke="#4C241D" stroke-linecap="round" stroke-linejoin="round"/>
<path d="M32.1671 23.7906V34.9598H31.1517C30.7478 34.9598 30.3604 35.1203 30.0748 35.4059C29.7891 35.6915 29.6287 36.0789 29.6287 36.4829H34.1979V22.7753" fill="#BF7E68"/>
<path d="M32.1671 23.7906V34.9598H31.1517C30.7478 34.9598 30.3604 35.1203 30.0748 35.4059C29.7891 35.6915 29.6287 36.0789 29.6287 36.4829H34.1979V22.7753" stroke="#4C241D" stroke-linecap="round" stroke-linejoin="round"/>
<path d="M35.7209 21.2522V27.3445C35.7209 27.6138 35.8279 27.872 36.0183 28.0624C36.2088 28.2529 36.467 28.3598 36.7363 28.3598H37.7517C38.021 28.3598 38.2793 28.2529 38.4697 28.0624C38.6601 27.872 38.7671 27.6138 38.7671 27.3445C38.7671 27.0752 38.8741 26.8169 39.0645 26.6265C39.2549 26.4361 39.5132 26.3291 39.7825 26.3291H40.2901" stroke="#4C241D" stroke-linecap="round" stroke-linejoin="round"/>
<path d="M22.5209 24.806C23.0595 24.806 23.576 24.5921 23.9568 24.2112C24.3377 23.8304 24.5516 23.3139 24.5516 22.7753" fill="#BF7E68"/>
<path d="M22.5209 24.806C23.0595 24.806 23.576 24.5921 23.9568 24.2112C24.3377 23.8304 24.5516 23.3139 24.5516 22.7753" stroke="#4C241D" stroke-linecap="round" stroke-linejoin="round"/>
<path d="M34.7056 14.6521C35.8271 14.6521 36.7363 13.7429 36.7363 12.6213C36.7363 11.4998 35.8271 10.5906 34.7056 10.5906C33.584 10.5906 32.6748 11.4998 32.6748 12.6213C32.6748 13.7429 33.584 14.6521 34.7056 14.6521Z" fill="#FFCE56" stroke="#4C241D" stroke-linecap="round" stroke-linejoin="round"/>
<path d="M13.4055 9.06756V8.55988" stroke="#4C241D" stroke-linecap="round" stroke-linejoin="round"/>
<path d="M31.1517 12.6215H30.644" stroke="#4C241D" stroke-linecap="round" stroke-linejoin="round"/>
<path d="M38.767 12.6215H38.2593" stroke="#4C241D" stroke-linecap="round" stroke-linejoin="round"/>
<path d="M15.9186 10.1083L16.2775 9.74939" stroke="#4C241D" stroke-linecap="round" stroke-linejoin="round"/>
<path d="M10.8925 10.1083L10.5336 9.74939" stroke="#4C241D" stroke-linecap="round" stroke-linejoin="round"/>
<path d="M37.5774 15.4934L37.2185 15.1345" stroke="#4C241D" stroke-linecap="round" stroke-linejoin="round"/>
</svg>
